<svg xmlns="http://www.w3.org/2000/svg" width="613.523" height="195.766" viewBox="0 0 613.523 195.766">
  <g id="Group_1" data-name="Group 1" transform="translate(-704 -266)">
    <path id="Subtraction_8" data-name="Subtraction 8" d="M128.632,376.523h-7.4a99.193,99.193,0,0,1-10.72-.986,13.481,13.481,0,0,0-4.6-6.291v-25.69a2.76,2.76,0,1,0-5.52,0V366.77a13.554,13.554,0,0,0-2.6-.252H87.7V334.626a30.984,30.984,0,0,1,10.315-23.172,37.026,37.026,0,0,0,25.368,13.3v2.14a9.9,9.9,0,1,0,5.52,0v-2.1a36.6,36.6,0,0,0,33.973-32.708,20.542,20.542,0,0,0,14.5-19.694v-7.145A13.493,13.493,0,0,0,163.9,251.769h-7.145a6.341,6.341,0,0,0-6.333,6.333v.524H102.35V258.1a6.341,6.341,0,0,0-6.333-6.333H88.866a13.493,13.493,0,0,0-13.478,13.478v7.145a20.646,20.646,0,0,0,20.623,20.623,6.341,6.341,0,0,0,6.333-6.333V264.146h48.07v22.538a6.341,6.341,0,0,0,6.333,6.333c.142,0,.287,0,.441-.005a30.846,30.846,0,0,1-3.62,10.444A31.192,31.192,0,0,1,97.1,298.928a2.761,2.761,0,1,0-5.183,1.9,36.493,36.493,0,0,0,2.9,6.081A36.44,36.44,0,0,0,83.5,324.786l-5.315-8.8a8.488,8.488,0,0,0-14.67,8.47L82.176,362.4v4.391a97.965,97.965,0,0,1-11.983-169.3c1.547-1.045,3.147-2.06,4.756-3.018L118.3,237.821l-.09.09,6.519,6.519.09-.091.09.091,6.518-6.519-.09-.09,43.437-43.438c1.66.983,3.31,2.028,4.906,3.106a97.934,97.934,0,0,1-9.1,167.833v-30.7a36.369,36.369,0,0,0-7.495-22.228,2.761,2.761,0,1,0-4.391,3.347,30.892,30.892,0,0,1,6.365,18.883v31.9h-10.1a13.568,13.568,0,0,0-2.6.252l0-23.214a2.76,2.76,0,0,0-5.52,0v25.69a13.521,13.521,0,0,0-4.406,5.786,98.852,98.852,0,0,1-13.8,1.49Zm-2.485-65.5h0a12.076,12.076,0,0,0,12.289-.932,2.76,2.76,0,0,0-3.159-4.527,6.574,6.574,0,0,1-6.139.746v-6.53a10.179,10.179,0,0,0,6.912-6.593l.937-2.813a4.9,4.9,0,0,0-4.652-6.454H120.42a4.9,4.9,0,0,0-4.652,6.455l.938,2.813a10.178,10.178,0,0,0,6.912,6.592v6.333a6.574,6.574,0,0,1-6.376-.4l-.336-.214a2.76,2.76,0,1,0-2.97,4.654l.335.214a12.073,12.073,0,0,0,11.875.653Zm9.045-39.785a2.763,2.763,0,0,0-2.76,2.76v.358a2.76,2.76,0,1,0,5.52,0V274a2.763,2.763,0,0,0-2.76-2.759Zm-17.627,0A2.763,2.763,0,0,0,114.8,274v.358a2.76,2.76,0,1,0,5.52,0V274a2.763,2.763,0,0,0-2.756-2.759Zm-14.35,102.933h0c-2.64-.6-5.288-1.316-7.869-2.133H97.8a7.926,7.926,0,0,1,5.416,2.133Zm47.977-1.144h0c.063-.047.118-.088.166-.128a7.862,7.862,0,0,1,3.124-.849c-1.1.346-2.2.675-3.289.976ZM82.174,349.883l-13.7-27.868a2.968,2.968,0,0,1,5.129-2.961L82.2,333.3c-.018.524-.027.932-.027,1.327v15.257Zm43.965-9.086a4.378,4.378,0,1,1,3.1-1.283,4.378,4.378,0,0,1-3.1,1.283Zm.239-46.155a4.668,4.668,0,0,1-4.435-3.2l-.667-2h10.2l-.667,2a4.669,4.669,0,0,1-4.435,3.2Zm30.368-7.145a.813.813,0,0,1-.812-.812V258.1a.813.813,0,0,1,.812-.812h7.145a7.967,7.967,0,0,1,7.958,7.957v7.145a15.12,15.12,0,0,1-15.1,15.11Zm-60.734,0a15.119,15.119,0,0,1-15.1-15.1v-7.146a7.966,7.966,0,0,1,7.958-7.957h7.146a.813.813,0,0,1,.812.812v28.581a.814.814,0,0,1-.817.813Zm28.805-56.2h0L83.47,189.953c1.111-.52,2.238-1.022,3.353-1.492a97.588,97.588,0,0,1,13.435-4.558l18.04,18.041-.09.09,6.519,6.519.09-.09.09.09,6.518-6.519-.09-.09,18.09-18.09a97.652,97.652,0,0,1,13.622,4.606c1.068.452,2.142.929,3.192,1.418L124.817,231.3Zm0-35.877h0l-13.691-13.691a99.088,99.088,0,0,1,27.411-.029l-13.719,13.718Z" transform="translate(676.958 85.238)" fill="#98cb46"/>
    <path id="PetHund" d="M15.922-69.4H31.185q8.019,0,13.068,3.641A21.507,21.507,0,0,1,51.629-56.7,25.676,25.676,0,0,1,53.609-45a29.712,29.712,0,0,1-3.019,11.682A24.462,24.462,0,0,1,42.966-24.3a19.6,19.6,0,0,1-11.88,3.614q-5.247,0-8.068-1.733a8.941,8.941,0,0,1-3.812-4.158,8.922,8.922,0,0,1-.5-5.1,11.724,11.724,0,0,1,1.881-4.653,3.415,3.415,0,0,0,1.881,1.683,13.84,13.84,0,0,0,3.118.891,20.188,20.188,0,0,0,3.416.3,15.959,15.959,0,0,0,2.772-.2,8.732,8.732,0,0,0,4.6-2.376,11.857,11.857,0,0,0,2.871-4.405,15.188,15.188,0,0,0,.94-5.346,11.87,11.87,0,0,0-1.139-5.2,9.4,9.4,0,0,0-3.564-3.91A11.389,11.389,0,0,0,29.3-56.43H18.117V0H4.95V-57.2a14.474,14.474,0,0,1,2.494-8.823Q9.937-69.4,15.922-69.4Zm80.5,49.6a28.747,28.747,0,0,1-9.752.99,16.533,16.533,0,0,1-7.227-2.128,8.374,8.374,0,0,1-3.762-4.653,9.512,9.512,0,0,1,.545-6.584,11.941,11.941,0,0,0,7.128,2.822,47.205,47.205,0,0,0,7.821-.148,10.512,10.512,0,0,0,4.8-1.386,4.562,4.562,0,0,0,2.03-2.525,4.431,4.431,0,0,0-.3-3.02A7.89,7.89,0,0,0,95.486-39.3a12.1,12.1,0,0,0-3.762-2.079,13.071,13.071,0,0,0-4.9-.693,15.414,15.414,0,0,0-5.445,1.386,14.809,14.809,0,0,0-4.554,3.267,16.235,16.235,0,0,0-3.168,4.851,16.693,16.693,0,0,0-1.287,6.138,17.846,17.846,0,0,0,.643,5.445,16.947,16.947,0,0,0,2.228,4.9A14.9,14.9,0,0,0,78.8-12.326,10.448,10.448,0,0,0,83.556-10.4a16.283,16.283,0,0,0,7.722-.495,16.15,16.15,0,0,0,7.029-4.356L108.7-10.2a24.079,24.079,0,0,1-9.6,8.663A29.289,29.289,0,0,1,86.427,1.089,27.309,27.309,0,0,1,74.795-1.238a24.3,24.3,0,0,1-8.316-6.188,25.863,25.863,0,0,1-4.95-8.762,29.582,29.582,0,0,1-1.535-10,29.3,29.3,0,0,1,1.98-10,26.029,26.029,0,0,1,5.445-8.662,22.137,22.137,0,0,1,9.257-6.039,33.777,33.777,0,0,1,10.84-1.782,24.86,24.86,0,0,1,10.593,2.079,21.191,21.191,0,0,1,7.227,5.3A16.384,16.384,0,0,1,109-38.165a15.066,15.066,0,0,1-.148,7.573,14.491,14.491,0,0,1-4.108,6.583A18.026,18.026,0,0,1,96.426-19.8Zm26.829-39.4a9.8,9.8,0,0,1,1.04-4.7,8.733,8.733,0,0,1,2.772-3.119,11.916,11.916,0,0,1,4.01-1.732,19.937,19.937,0,0,1,4.653-.545v18.414h11.484a21.27,21.27,0,0,1-.346,3.861,9.36,9.36,0,0,1-1.337,3.416,7.43,7.43,0,0,1-2.673,2.475,8.878,8.878,0,0,1-4.356.941h-2.772v28.017a2.319,2.319,0,0,0,1.188,2.227,5.369,5.369,0,0,0,2.772.594,8.524,8.524,0,0,0,3.168-.743,4.7,4.7,0,0,0,2.277-1.881,7.246,7.246,0,0,1,.148,5.792,9.206,9.206,0,0,1-3.564,4.059,14.011,14.011,0,0,1-5.643,1.98,13.155,13.155,0,0,1-6.039-.5,10.329,10.329,0,0,1-4.8-3.366,10.108,10.108,0,0,1-1.98-6.584v-29.6h-6.336V-50.886h6.336ZM168.5-69.3v28.314h23.166V-69.3h13.365V0H191.664V-28.314H178.5a14.652,14.652,0,0,1-3.366-.4A9.182,9.182,0,0,1,172.111-30a8.666,8.666,0,0,1-2.326-2.327,8.24,8.24,0,0,1-1.287-3.613V0H155.133V-58.707a9.659,9.659,0,0,1,1.139-4.8,9.922,9.922,0,0,1,2.97-3.316,12.492,12.492,0,0,1,4.257-1.881A20.941,20.941,0,0,1,168.5-69.3Zm59.4,18.117v24.552q0,1.782.049,3.812a25.969,25.969,0,0,0,.4,3.96,13.279,13.279,0,0,0,1.188,3.613,7.737,7.737,0,0,0,2.524,2.871,7.753,7.753,0,0,0,2.525,1.188,10.933,10.933,0,0,0,2.921.4,10.4,10.4,0,0,0,2.871-.4,9.136,9.136,0,0,0,2.574-1.188,7.1,7.1,0,0,0,2.525-2.723,12.62,12.62,0,0,0,1.188-3.515,21.27,21.27,0,0,0,.346-3.861V-40.986q-.1-5.346,3.465-7.969t9.306-2.426V-29.6a85.731,85.731,0,0,1-.445,11.236,27.078,27.078,0,0,1-1.633,7.079,18.863,18.863,0,0,1-8.118,9.5A25.18,25.18,0,0,1,237.3,1.089a24.367,24.367,0,0,1-13.068-3.366q-5.445-3.366-7.821-10.791a33.833,33.833,0,0,1-1.089-6.188,85.383,85.383,0,0,1-.4-8.564V-51.183Zm54.648,5.841a8.03,8.03,0,0,1,2.425-3.069,17.245,17.245,0,0,1,3.614-2.178,22.664,22.664,0,0,1,4.059-1.386,22.036,22.036,0,0,1,3.861-.594,19.759,19.759,0,0,1,7.425,1.04,17.359,17.359,0,0,1,6.732,4.306q4.455,4.653,4.455,13.365V0H302.445q0-1.683.049-4.554t.049-6.287v-7.078q0-3.663-.1-6.93t-.3-5.841a25.012,25.012,0,0,0-.495-3.762,7.929,7.929,0,0,0-3.02-4.752,8.125,8.125,0,0,0-4.8-1.584,7.2,7.2,0,0,0-5.247,1.831,6.4,6.4,0,0,0-1.881,4.8,6.042,6.042,0,0,1-2.376-1.633,8.812,8.812,0,0,1-1.782-2.624V0H269.775V-51.282h12.771Zm79.6,39.8a23.223,23.223,0,0,1-7.97,5.2,22.1,22.1,0,0,1-8.663,1.485A22.112,22.112,0,0,1,337.1-.842a21.78,21.78,0,0,1-7.178-5.247,26.355,26.355,0,0,1-5-8.168,29.131,29.131,0,0,1-1.881-10.791,27.436,27.436,0,0,1,2.03-10.692,26.575,26.575,0,0,1,5.445-8.365,24.061,24.061,0,0,1,7.772-5.4,20.532,20.532,0,0,1,9.108-1.683,15,15,0,0,1,7.771,2.079,11.5,11.5,0,0,1,4.059,4.356,10.6,10.6,0,0,1,1.188,5,8.688,8.688,0,0,1-.94,4.108,8.281,8.281,0,0,0-4.7-3.217,21.241,21.241,0,0,0-5.693-.841,12.442,12.442,0,0,0-7.474,2.178,13.937,13.937,0,0,0-4.554,5.445A16.44,16.44,0,0,0,335.511-25,16.9,16.9,0,0,0,337-17.919a13.687,13.687,0,0,0,4.455,5.445,12.39,12.39,0,0,0,7.524,2.178,11.037,11.037,0,0,0,6.386-1.733,12.573,12.573,0,0,0,4.009-4.5,21.412,21.412,0,0,0,2.128-6.187,36.559,36.559,0,0,0,.644-6.781V-69.2q5.841.2,9.158,3.168a9.05,9.05,0,0,1,3.316,6.93v59H362.142Z" transform="translate(940.328 382.579)" fill="#fff"/>
  </g>
</svg>
